<?xml version="1.0" standalone="no"?>
<!DOCTYPE svg PUBLIC "-//W3C//DTD SVG 20010904//EN"
 "http://www.w3.org/TR/2001/REC-SVG-20010904/DTD/svg10.dtd">
<svg version="1.0" xmlns="http://www.w3.org/2000/svg"
 width="512.000000pt" height="512.000000pt" viewBox="0 0 512.000000 512.000000"
 preserveAspectRatio="xMidYMid meet">
<metadata>
Created by potrace 1.11, written by Peter Selinger 2001-2013
</metadata>
<g transform="translate(0.000000,512.000000) scale(0.100000,-0.100000)"
fill="#000000" stroke="none">
<path d="M2320 5080 c-473 -49 -900 -215 -1280 -498 -149 -111 -391 -353 -502
-502 -491 -660 -633 -1481 -394 -2272 165 -545 533 -1032 1026 -1360 235 -156
487 -268 764 -338 240 -61 355 -74 626 -74 266 0 383 13 615 71 718 179 1331
674 1655 1338 117 241 195 491 236 760 26 168 26 541 0 710 -23 152 -83 392
-131 521 -59 158 -166 368 -263 514 -407 612 -1020 1002 -1752 1115 -124 19
-476 28 -600 15z m311 -392 c89 -30 158 -102 185 -194 l15 -51 77 -5 c94 -7
160 -35 220 -95 l43 -43 340 0 341 0 34 -34 34 -34 0 -1670 c0 -1061 -4 -1680
-10 -1696 -5 -14 -24 -35 -42 -46 -33 -20 -48 -20 -1320 -18 l-1288 3 -27 28
-28 27 -3 1686 -2 1686 34 34 34 34 341 0 340 0 43 43 c60 59 123 86 219 94
76 6 80 7 84 32 17 88 107 193 189 219 43 14 107 14 147 0z"/>
<path d="M2528 4542 c-64 -8 -99 -103 -63 -172 21 -40 79 -58 135 -41 47 14
70 50 70 110 0 71 -60 115 -142 103z"/>
<path d="M1515 4108 c-47 -25 -45 40 -45 -1455 l0 -1414 25 -24 24 -25 1041 0
1041 0 24 25 25 24 0 1410 c0 775 -3 1417 -6 1426 -15 38 -56 45 -249 45
l-185 0 0 -60 c0 -51 -4 -65 -25 -85 l-24 -25 -601 0 -601 0 -24 25 c-21 20
-25 34 -25 85 l0 60 -187 0 c-117 0 -196 -5 -208 -12z m515 -488 c17 -17 20
-33 20 -98 0 -115 -7 -122 -125 -122 -121 0 -125 4 -125 113 0 120 7 127 121
127 76 0 92 -3 109 -20z m1235 -55 c16 -15 25 -36 25 -55 0 -19 -9 -40 -25
-55 l-24 -25 -489 0 c-480 0 -490 0 -516 21 -20 16 -26 29 -26 59 0 30 6 43
26 59 26 21 36 21 516 21 l489 0 24 -25z m-1231 -367 c11 -16 16 -46 16 -98 0
-112 -8 -120 -122 -120 -122 0 -128 5 -128 118 0 117 5 122 126 122 85 0 94
-2 108 -22z m1231 -43 c16 -15 25 -36 25 -55 0 -19 -9 -40 -25 -55 l-24 -25
-489 0 c-480 0 -490 0 -516 21 -20 16 -26 29 -26 59 0 30 6 43 26 59 26 21 36
21 516 21 l489 0 24 -25z m-1231 -367 c11 -16 16 -46 16 -98 0 -113 -8 -120
-125 -120 -118 0 -125 7 -125 127 0 109 4 113 125 113 86 0 95 -2 109 -22z
m1231 -43 c30 -29 32 -74 6 -106 l-19 -24 -500 0 c-478 0 -501 1 -521 19 -32
29 -29 88 5 115 26 21 36 21 516 21 l489 0 24 -25z m-1231 -367 c11 -16 16
-46 16 -100 0 -109 -10 -118 -129 -118 -113 0 -121 8 -121 123 0 116 1 117
120 117 91 0 100 -2 114 -22z m1230 -39 c48 -38 27 -118 -36 -134 -13 -3 -237
-4 -499 -3 -453 3 -478 4 -498 22 -28 26 -28 82 1 113 l21 23 492 0 c483 0
493 0 519 -21z m4 -475 c21 -15 22 -20 22 -206 0 -164 -2 -194 -17 -210 -15
-17 -51 -18 -729 -18 l-713 0 -15 22 c-13 18 -16 56 -16 205 0 170 1 184 20
203 20 20 33 20 723 20 620 0 705 -2 725 -16z"/>
</g>
</svg>
